<svg xmlns="http://www.w3.org/2000/svg" width="24" height="24"><path d="M12 .5C5.73.5.75 5.48.75 11.77c0 4.92 3.19 9.09 7.61 10.56.56.1.77-.24.77-.54 0-.27-.01-1-.02-1.96-3.09.67-3.74-1.49-3.74-1.49-.5-1.26-1.22-1.6-1.22-1.6-.99-.67.08-.66.08-.66 1.1.08 1.68 1.13 1.68 1.13.97 1.67 2.54 1.19 3.16.91.1-.71.38-1.19.69-1.46-2.47-.28-5.07-1.23-5.07-5.46 0-1.2.43-2.18 1.13-2.95-.11-.28-.49-1.4.11-2.92 0 0 .92-.3 3.02 1.12a10.5 10.5 0 012.75-.37c.94 0 1.88.12 2.75.37 2.1-1.42 3.02-1.12 3.02-1.12.6 1.52.22 2.64.11 2.92.7.77 1.13 1.75 1.13 2.95 0 4.24-2.61 5.18-5.09 5.45.39.34.74 1.01.74 2.04 0 1.47-.01 2.66-.01 3.02 0 .3.21.65.78.54C20.06 20.86 23.25 16.69 23.25 11.77 23.25 5.48 18.27.5 12 .5z"/></svg>